<?xml version="1.0" encoding="UTF-8"?><svg id="Layer_2" xmlns="http://www.w3.org/2000/svg" viewBox="0 0 176.2 25.63"><defs><style>.cls-1{fill:#fff;}.cls-2{fill:#9cff00;}</style></defs><g id="Layer_1-2"><rect class="cls-2" y="11.28" width="170.6" height="2.42"/><g><path class="cls-1" d="M6.31,3.38c0-.65-.2-.97-.61-.97s-.61,.32-.61,.97V22.25c0,.65,.2,.97,.61,.97s.61-.32,.61-.97v-7.49h2.63v7.63c0,1.01-.29,1.8-.88,2.38-.59,.58-1.37,.86-2.36,.86s-1.77-.29-2.36-.86c-.59-.58-.88-1.37-.88-2.38V3.24c0-1.01,.3-1.8,.9-2.38,.6-.58,1.39-.86,2.38-.86s1.73,.29,2.32,.86c.59,.58,.88,1.37,.88,2.38v6.52h-2.63V3.38Z"/><path class="cls-1" d="M16.89,25.4h-2.63V13.69h-1.22v11.7h-2.63V.23h2.63V11.28h1.22V.23h2.63V25.4Z"/><path class="cls-1" d="M22.23,14.56c0-.34-.05-.56-.14-.68-.1-.12-.25-.18-.47-.18h-.61v11.72h-2.63V.22h3.28c1.08,0,1.88,.25,2.41,.76,.53,.5,.79,1.3,.79,2.38v6.55c0,.82-.08,1.42-.23,1.82-.16,.4-.51,.69-1.06,.88v.07c.55,.19,.91,.49,1.06,.88,.16,.4,.23,1,.23,1.82v6.8c0,.62,.01,1.17,.04,1.64,.02,.47,.13,.98,.32,1.53v.07h-2.66c-.12-.55-.2-1.07-.25-1.55-.05-.48-.07-1.06-.07-1.73v-7.58Zm0-11.03c0-.6-.2-.9-.61-.9h-.61V11.28h.61c.22,0,.37-.06,.47-.18,.1-.12,.14-.35,.14-.68V3.53Z"/><path class="cls-1" d="M29.17,25.42h-2.63V.22h2.63V25.42Z"/><path class="cls-1" d="M37.1,22.39c0,1.01-.3,1.8-.9,2.38-.6,.58-1.39,.86-2.38,.86s-1.76-.29-2.34-.86c-.58-.58-.86-1.37-.86-2.38v-5.83h2.63v5.69c0,.65,.2,.97,.61,.97,.38,0,.58-.32,.58-.97v-4.57c0-.94-.18-1.79-.54-2.56-.36-.77-.77-1.54-1.22-2.3-.5-.84-.97-1.73-1.4-2.68-.43-.95-.65-2.06-.65-3.33V3.24c0-1.01,.3-1.8,.9-2.38,.6-.58,1.39-.86,2.38-.86s1.73,.29,2.32,.86c.59,.58,.88,1.37,.88,2.38V7.96h-2.66V3.38c0-.65-.19-.97-.58-.97-.41,0-.61,.32-.61,.97v3.42c0,.96,.18,1.82,.54,2.59,.36,.77,.77,1.54,1.22,2.3,.5,.84,.98,1.73,1.42,2.68,.44,.95,.67,2.05,.67,3.29v4.72Z"/><path class="cls-1" d="M48.87,9.18c0,.79-.08,1.39-.23,1.8-.16,.41-.51,.71-1.06,.9v.07c.55,.19,.91,.49,1.06,.9,.16,.41,.23,1.01,.23,1.8v7.63c0,1.08-.26,1.87-.79,2.38s-1.33,.76-2.41,.76h-3.28V.22h3.28c2.14,0,3.2,1.03,3.2,3.1v5.87Zm-2.63-5.69c0-.58-.2-.86-.61-.86h-.61V10.69h.61c.41,0,.61-.29,.61-.86V3.49Zm0,10.51c0-.34-.05-.56-.14-.68-.1-.12-.25-.18-.47-.18h-.61v9.86h.61c.41,0,.61-.3,.61-.9V14Z"/><path class="cls-1" d="M52.93,.22V23h1.55v2.41h-4.18V.22h2.63Z"/><path class="cls-1" d="M62.35,22.39c0,1.01-.29,1.8-.88,2.38-.59,.58-1.37,.86-2.36,.86s-1.75-.29-2.36-.86c-.61-.58-.92-1.37-.92-2.38V3.24c0-1.01,.31-1.8,.92-2.38,.61-.58,1.41-.86,2.39-.86s1.73,.29,2.32,.86c.59,.58,.88,1.37,.88,2.38V22.39Zm-2.66-19.01c0-.65-.19-.97-.58-.97-.41,0-.61,.32-.61,.97V22.25c0,.65,.2,.97,.61,.97,.38,0,.58-.32,.58-.97V3.38Z"/><path class="cls-1" d="M74.45,25.42h-2.48l.11-21.24h-.07l-.29,5.04-1.19,16.2h-2.74l-1.22-16.2-.29-5.04h-.07l.11,21.24h-2.48V.22h4.28l.83,14.58,.18,5h.07l.14-4.97,.83-14.62h4.28V25.42Z"/><path class="cls-1" d="M93.75,22.28c0,1.01-.25,1.78-.76,2.32s-1.33,.81-2.48,.81h-3.24V.22h3.24c1.15,0,1.98,.26,2.48,.79,.5,.53,.76,1.31,.76,2.34V22.28Zm-2.66-18.76c0-.34-.05-.57-.14-.7-.1-.13-.25-.2-.47-.2h-.58V23h.58c.22,0,.37-.07,.47-.2,.1-.13,.14-.37,.14-.7V3.53Z"/><path class="cls-1" d="M99.29,2.66h-1.44V11.3h1.26v2.18h-1.26v9.52h1.62v2.41h-4.25V.25h4.07V2.66Z"/><path class="cls-1" d="M107.3,22.39c0,1.01-.3,1.8-.9,2.38-.6,.58-1.39,.86-2.38,.86s-1.76-.29-2.34-.86c-.58-.58-.86-1.37-.86-2.38v-5.83h2.63v5.69c0,.65,.2,.97,.61,.97,.38,0,.58-.32,.58-.97v-4.57c0-.94-.18-1.79-.54-2.56-.36-.77-.77-1.54-1.22-2.3-.5-.84-.97-1.73-1.4-2.68-.43-.95-.65-2.06-.65-3.33V3.24c0-1.01,.3-1.8,.9-2.38,.6-.58,1.39-.86,2.38-.86s1.73,.29,2.32,.86c.59,.58,.88,1.37,.88,2.38V7.96h-2.66V3.38c0-.65-.19-.97-.58-.97-.41,0-.61,.32-.61,.97v3.42c0,.96,.18,1.82,.54,2.59,.36,.77,.77,1.54,1.22,2.3,.5,.84,.98,1.73,1.42,2.68,.44,.95,.67,2.05,.67,3.29v4.72Z"/><path class="cls-1" d="M111.37,25.42h-2.63V.22h2.63V25.42Z"/><path class="cls-1" d="M119.33,14.47v10.94h-2.63v-1.44h-.07c-.31,1.1-.89,1.66-1.73,1.66-.62,0-1.12-.29-1.49-.86s-.56-1.37-.56-2.38V3.24c0-1.01,.3-1.8,.9-2.38,.6-.58,1.39-.86,2.38-.86s1.76,.29,2.34,.86c.58,.58,.86,1.37,.86,2.38v6.52h-2.63V3.38c0-.65-.2-.97-.61-.97-.38,0-.58,.32-.58,.97V22.28c0,.65,.19,.97,.58,.97,.41,0,.61-.35,.61-1.04v-5.33h-.61v-2.41h3.24Z"/><path class="cls-1" d="M128.76,25.42h-3.46l-2.45-20.52h-.07l.4,8.46,.14,12.06h-2.52V.22h3.49l2.45,20.45h.07l-.4-8.21-.14-12.24h2.48V25.42Z"/><path class="cls-1" d="M136.79,.22V23h1.55v2.41h-4.18V.22h2.63Z"/><path class="cls-1" d="M143.79,2.66h-1.44V11.29h1.26v2.41h-1.26v9.3h1.62v2.41h-4.25V.25h4.07V2.66Z"/><path class="cls-1" d="M152.39,25.42h-2.84l-.29-6.41h-1.3l-.29,6.41h-2.56L146.85,.22h3.64l1.91,25.2Zm-3.24-8.82l-.36-7.31-.14-5.58h-.07l-.14,5.58-.36,7.31h1.08Z"/><path class="cls-1" d="M160.09,22.28c0,1.01-.25,1.78-.76,2.32s-1.33,.81-2.48,.81h-3.24V.22h3.24c1.15,0,1.98,.26,2.48,.79,.5,.53,.76,1.31,.76,2.34V22.28Zm-2.66-18.76c0-.34-.05-.57-.14-.7-.1-.13-.25-.2-.47-.2h-.58V23h.58c.22,0,.37-.07,.47-.2,.1-.13,.14-.37,.14-.7V3.53Z"/><path class="cls-1" d="M165.64,2.66h-1.44V11.3h1.26v2.31h-1.26v9.39h1.62v2.41h-4.25V.25h4.07V2.66Z"/><path class="cls-1" d="M171.05,14.59c0-.34-.05-.56-.14-.68-.1-.12-.25-.18-.47-.18h-.61v11.69h-2.63V.22h3.28c1.08,0,1.88,.25,2.41,.76,.53,.5,.79,1.3,.79,2.38v6.42c0,.82-.08,1.42-.23,1.82-.16,.4-.51,.69-1.06,.88v.07c.55,.19,.91,.49,1.06,.88,.16,.4,.23,1,.23,1.82v6.94c0,.62,.01,1.17,.04,1.64,.02,.47,.13,.98,.32,1.53v.07h-2.66c-.12-.55-.2-1.07-.25-1.55-.05-.48-.07-1.06-.07-1.73v-7.55Zm0-11.06c0-.6-.2-.9-.61-.9h-.61V11.28h.61c.22,0,.37-.06,.47-.18,.1-.12,.14-.35,.14-.68V3.53Z"/></g><rect class="cls-2" x="77.66" y="11.28" width="98.54" height="2.42"/></g></svg>